<svg xmlns="http://www.w3.org/2000/svg" viewBox="0 0 170 220" width="170" height="220">
  <defs>
    <linearGradient id="wmGold" x1="0%" y1="0%" x2="100%" y2="100%">
      <stop offset="0%" stop-color="#f6d365"/>
      <stop offset="55%" stop-color="#e8a800"/>
      <stop offset="100%" stop-color="#c9860a"/>
    </linearGradient>
  </defs>
  <g fill="none" stroke="url(#wmGold)" stroke-width="15" stroke-linecap="round">
    <circle cx="70" cy="40" r="11"/>
    <path d="M 70 51
             L 73 146
             C 75 178 100 197 128 189
             C 152 182 161 156 144 140
             C 132 129 115 133 112 146"/>
    <path d="M 112 146 L 95 143" stroke-width="13"/>
  </g>
  <g transform="translate(30 150) rotate(-8)">
    <path d="M0 0 C 14 -12 36 -12 50 0 C 36 12 14 12 0 0 Z" fill="url(#wmGold)"/>
    <path d="M50 0 L 67 -10 L 61 0 L 67 10 Z" fill="url(#wmGold)"/>
  </g>
</svg>
